<svg width="73" height="15" viewBox="0 0 73 15" fill="none" xmlns="http://www.w3.org/2000/svg">
<rect width="73" height="15" fill="white"/>
<path d="M11.5 2L8 1L4.5 2L3.5 0.5H1.5L0.5 2L1 3.5L0 9L5 13L5.5 14L8 15L10.5 14L11 13L16 9L15 3.5L15.5 2L14.5 0.5H12.5L11.5 2Z" fill="#E0E0E0"/>
<path d="M8 10.5L4.5 12L5.5 14L8 15L10.5 14L11.5 12L8 10.5Z" fill="#BDBDBD"/>
<path d="M8 11.5L6.5 12L7 13L8 13.5L9 13L9.5 12L8 11.5Z" fill="#111827"/>
<path d="M2 3L3.5 2L2.5 1.5L1.5 2L2 3Z" fill="#111827"/>
<path d="M12.5 2L13.5 1.5L14.5 2L14 3L12.5 2Z" fill="#111827"/>
<path d="M3 6.5H5L6.5 7" stroke="#111827"/>
<path d="M13 6.5H11L9.5 7" stroke="#111827"/>
<path d="M23.176 12V3.6H24.34L29.476 10.476L29.284 10.584C29.252 10.384 29.224 10.168 29.2 9.936C29.176 9.696 29.152 9.444 29.128 9.18C29.112 8.908 29.096 8.624 29.08 8.328C29.072 8.024 29.064 7.708 29.056 7.38C29.048 7.052 29.044 6.712 29.044 6.36V3.6H30.34V12H29.152L24.1 5.376L24.232 5.208C24.272 5.696 24.304 6.112 24.328 6.456C24.36 6.792 24.384 7.08 24.4 7.32C24.424 7.552 24.44 7.744 24.448 7.896C24.456 8.04 24.46 8.16 24.46 8.256C24.468 8.352 24.472 8.436 24.472 8.508V12H23.176ZM35.2116 12.12C34.5956 12.12 34.0436 11.98 33.5556 11.7C33.0756 11.412 32.6956 11.024 32.4156 10.536C32.1356 10.04 31.9956 9.476 31.9956 8.844C31.9956 8.212 32.1356 7.652 32.4156 7.164C32.6956 6.668 33.0756 6.28 33.5556 6C34.0436 5.712 34.5956 5.568 35.2116 5.568C35.8196 5.568 36.3636 5.712 36.8436 6C37.3316 6.28 37.7156 6.668 37.9956 7.164C38.2756 7.652 38.4156 8.212 38.4156 8.844C38.4156 9.476 38.2756 10.04 37.9956 10.536C37.7156 11.024 37.3316 11.412 36.8436 11.7C36.3636 11.98 35.8196 12.12 35.2116 12.12ZM35.2116 10.992C35.5876 10.992 35.9236 10.9 36.2196 10.716C36.5156 10.524 36.7476 10.268 36.9156 9.948C37.0836 9.62 37.1636 9.252 37.1556 8.844C37.1636 8.428 37.0836 8.06 36.9156 7.74C36.7476 7.412 36.5156 7.156 36.2196 6.972C35.9236 6.788 35.5876 6.696 35.2116 6.696C34.8356 6.696 34.4956 6.792 34.1916 6.984C33.8956 7.168 33.6636 7.424 33.4956 7.752C33.3276 8.072 33.2476 8.436 33.2556 8.844C33.2476 9.252 33.3276 9.62 33.4956 9.948C33.6636 10.268 33.8956 10.524 34.1916 10.716C34.4956 10.9 34.8356 10.992 35.2116 10.992ZM42.5944 12.12C41.9784 12.12 41.4264 11.98 40.9384 11.7C40.4584 11.412 40.0784 11.024 39.7984 10.536C39.5184 10.04 39.3784 9.476 39.3784 8.844C39.3784 8.212 39.5184 7.652 39.7984 7.164C40.0784 6.668 40.4584 6.28 40.9384 6C41.4264 5.712 41.9784 5.568 42.5944 5.568C43.2024 5.568 43.7464 5.712 44.2264 6C44.7144 6.28 45.0984 6.668 45.3784 7.164C45.6584 7.652 45.7984 8.212 45.7984 8.844C45.7984 9.476 45.6584 10.04 45.3784 10.536C45.0984 11.024 44.7144 11.412 44.2264 11.7C43.7464 11.98 43.2024 12.12 42.5944 12.12ZM42.5944 10.992C42.9704 10.992 43.3064 10.9 43.6024 10.716C43.8984 10.524 44.1304 10.268 44.2984 9.948C44.4664 9.62 44.5464 9.252 44.5384 8.844C44.5464 8.428 44.4664 8.06 44.2984 7.74C44.1304 7.412 43.8984 7.156 43.6024 6.972C43.3064 6.788 42.9704 6.696 42.5944 6.696C42.2184 6.696 41.8784 6.792 41.5744 6.984C41.2784 7.168 41.0464 7.424 40.8784 7.752C40.7104 8.072 40.6304 8.436 40.6384 8.844C40.6304 9.252 40.7104 9.62 40.8784 9.948C41.0464 10.268 41.2784 10.524 41.5744 10.716C41.8784 10.9 42.2184 10.992 42.5944 10.992ZM48.2733 10.032L48.2133 8.688L51.2253 5.7H52.8932L48.2733 10.032ZM47.1453 12V3.12H48.3813V12H47.1453ZM51.3933 12L49.0173 9.228L49.8933 8.424L52.9773 12H51.3933ZM57.219 12.12C56.947 12.12 56.675 12.076 56.403 11.988C56.139 11.9 55.895 11.784 55.671 11.64C55.455 11.488 55.271 11.324 55.119 11.148C54.975 10.964 54.879 10.78 54.831 10.596L55.143 10.428V11.964H53.907V3.12H55.143V7.14L54.951 7.032C54.991 6.848 55.079 6.672 55.215 6.504C55.351 6.328 55.523 6.172 55.731 6.036C55.947 5.892 56.179 5.78 56.427 5.7C56.675 5.612 56.927 5.568 57.183 5.568C57.751 5.568 58.255 5.708 58.695 5.988C59.135 6.268 59.483 6.656 59.739 7.152C59.995 7.64 60.123 8.2 60.123 8.832C60.123 9.464 59.995 10.028 59.739 10.524C59.491 11.02 59.147 11.412 58.707 11.7C58.267 11.98 57.771 12.12 57.219 12.12ZM57.015 10.992C57.383 10.992 57.711 10.9 57.999 10.716C58.287 10.524 58.515 10.268 58.683 9.948C58.851 9.62 58.935 9.248 58.935 8.832C58.935 8.424 58.851 8.06 58.683 7.74C58.523 7.412 58.299 7.156 58.011 6.972C57.723 6.788 57.391 6.696 57.015 6.696C56.639 6.696 56.307 6.788 56.019 6.972C55.731 7.156 55.503 7.412 55.335 7.74C55.167 8.06 55.083 8.424 55.083 8.832C55.083 9.248 55.167 9.62 55.335 9.948C55.503 10.268 55.731 10.524 56.019 10.716C56.307 10.9 56.639 10.992 57.015 10.992ZM64.2976 12.12C63.6816 12.12 63.1296 11.98 62.6416 11.7C62.1616 11.412 61.7816 11.024 61.5016 10.536C61.2216 10.04 61.0816 9.476 61.0816 8.844C61.0816 8.212 61.2216 7.652 61.5016 7.164C61.7816 6.668 62.1616 6.28 62.6416 6C63.1296 5.712 63.6816 5.568 64.2976 5.568C64.9056 5.568 65.4496 5.712 65.9296 6C66.4176 6.28 66.8016 6.668 67.0816 7.164C67.3616 7.652 67.5016 8.212 67.5016 8.844C67.5016 9.476 67.3616 10.04 67.0816 10.536C66.8016 11.024 66.4176 11.412 65.9296 11.7C65.4496 11.98 64.9056 12.12 64.2976 12.12ZM64.2976 10.992C64.6736 10.992 65.0096 10.9 65.3056 10.716C65.6016 10.524 65.8336 10.268 66.0016 9.948C66.1696 9.62 66.2496 9.252 66.2416 8.844C66.2496 8.428 66.1696 8.06 66.0016 7.74C65.8336 7.412 65.6016 7.156 65.3056 6.972C65.0096 6.788 64.6736 6.696 64.2976 6.696C63.9216 6.696 63.5816 6.792 63.2776 6.984C62.9816 7.168 62.7496 7.424 62.5816 7.752C62.4136 8.072 62.3336 8.436 62.3416 8.844C62.3336 9.252 62.4136 9.62 62.5816 9.948C62.7496 10.268 62.9816 10.524 63.2776 10.716C63.5816 10.9 63.9216 10.992 64.2976 10.992ZM69.6284 12V4.092H70.8644V12H69.6284ZM68.3204 6.9V5.7H72.3284V6.9H68.3204Z" fill="#111827"/>
</svg>
